<svg width="11" height="11" viewBox="0 0 11 11" fill="none" xmlns="http://www.w3.org/2000/svg">
<path d="M2.33333 10.5V9.33333H4.66667V7.525C4.19028 7.41806 3.76493 7.21632 3.39062 6.91979C3.01632 6.62326 2.74167 6.25139 2.56667 5.80417C1.8375 5.71667 1.22743 5.39826 0.736458 4.84896C0.245486 4.29965 0 3.65556 0 2.91667V2.33333C0 2.0125 0.114236 1.73785 0.342708 1.50937C0.571181 1.2809 0.845833 1.16667 1.16667 1.16667H2.33333V0H8.16667V1.16667H9.33333C9.65417 1.16667 9.92882 1.2809 10.1573 1.50937C10.3858 1.73785 10.5 2.0125 10.5 2.33333V2.91667C10.5 3.65556 10.2545 4.29965 9.76354 4.84896C9.27257 5.39826 8.6625 5.71667 7.93333 5.80417C7.75833 6.25139 7.48368 6.62326 7.10938 6.91979C6.73507 7.21632 6.30972 7.41806 5.83333 7.525V9.33333H8.16667V10.5H2.33333ZM2.33333 4.55V2.33333H1.16667V2.91667C1.16667 3.28611 1.27361 3.6191 1.4875 3.91563C1.70139 4.21215 1.98333 4.42361 2.33333 4.55ZM5.25 6.41667C5.73611 6.41667 6.14931 6.24653 6.48958 5.90625C6.82986 5.56597 7 5.15278 7 4.66667V1.16667H3.5V4.66667C3.5 5.15278 3.67014 5.56597 4.01042 5.90625C4.35069 6.24653 4.76389 6.41667 5.25 6.41667ZM8.16667 4.55C8.51667 4.42361 8.79861 4.21215 9.0125 3.91563C9.22639 3.6191 9.33333 3.28611 9.33333 2.91667V2.33333H8.16667V4.55Z" fill="#006857"/>
</svg>
