<svg width="28" height="20" viewBox="0 0 28 20" fill="none" xmlns="http://www.w3.org/2000/svg">
<path d="M17.5 20C14.7083 20 12.3438 19.0312 10.4062 17.0938C8.46875 15.1562 7.5 12.7917 7.5 10C7.5 7.20833 8.46875 4.84375 10.4062 2.90625C12.3438 0.96875 14.7083 0 17.5 0C20.2917 0 22.6562 0.96875 24.5938 2.90625C26.5312 4.84375 27.5 7.20833 27.5 10C27.5 12.7917 26.5312 15.1562 24.5938 17.0938C22.6562 19.0312 20.2917 20 17.5 20ZM7.5 19.6875C5.29167 19.1042 3.48958 17.9167 2.09375 16.125C0.697917 14.3333 0 12.2917 0 10C0 7.70833 0.697917 5.66667 2.09375 3.875C3.48958 2.08333 5.29167 0.895833 7.5 0.3125V2.9375C6 3.45833 4.79167 4.36458 3.875 5.65625C2.95833 6.94792 2.5 8.39583 2.5 10C2.5 11.6042 2.95833 13.0521 3.875 14.3438C4.79167 15.6354 6 16.5417 7.5 17.0625V19.6875ZM17.5 17.5C19.5833 17.5 21.3542 16.7708 22.8125 15.3125C24.2708 13.8542 25 12.0833 25 10C25 7.91667 24.2708 6.14583 22.8125 4.6875C21.3542 3.22917 19.5833 2.5 17.5 2.5C15.4167 2.5 13.6458 3.22917 12.1875 4.6875C10.7292 6.14583 10 7.91667 10 10C10 12.0833 10.7292 13.8542 12.1875 15.3125C13.6458 16.7708 15.4167 17.5 17.5 17.5Z" fill="#0D9488"/>
</svg>
